# xmcd
#
# Track frame offsets: 
#        150
#        14830
#        34442
#        49382
#        65707
#        78242
#        90312
#        102775
#        116142
#        135570
#        146810
#
# Disc length: 2273 seconds
#
# Revision: 1
# Processed by: cddbd v1.4PL0 Copyright (c) Steve Scherf et al.
# Submitted via: ExactAudioCopy v0.90b4
#
DISCID=9f08df0b
DTITLE=Clem Snide - SoftSpot
DYEAR=2003
DGENRE=Rock and Roll
TTITLE0=Forever, Now and Then
TTITLE1=Tuesday, October 24th
TTITLE2=All Green
TTITLE3=Close the Door
TTITLE4=Action
TTITLE5=Find Love
TTITLE6=There is Nothing
TTITLE7=Strong Enough
TTITLE8=Happy Birthday
TTITLE9=Fontanelle
TTITLE10=Every Moment
EXTD=YEAR: 2003
EXTT0=
EXTT1=
EXTT2=
EXTT3=
EXTT4=
EXTT5=
EXTT6=
EXTT7=
EXTT8=
EXTT9=
EXTT10=
PLAYORDER=
